<svg width="36" height="36" viewBox="0 0 36 36" fill="none" xmlns="http://www.w3.org/2000/svg">
<path d="M24 8H25.2598C26.1556 8 26.9823 8.48442 27.4355 9.26172V9.2627L28.2881 10.7549C26.0403 10.8654 24.25 12.7249 24.25 15V19.5C24.25 21.8461 26.1539 23.75 28.5 23.75H32.25C32.3939 23.75 32.5 23.8561 32.5 24V25.5C32.5 27.5545 30.9616 29.2396 28.9707 29.4717C28.7048 26.9668 26.5727 25 24 25C21.4176 25 19.2781 26.9816 19.0254 29.5H16.9746C16.7219 26.9816 14.5824 25 12 25C9.42725 25 7.29419 26.9667 7.02832 29.4717C5.03792 29.2392 3.5 27.5542 3.5 25.5V22.5C3.5 21.9511 3.95114 21.5 4.5 21.5H18.75C21.0961 21.5 23 19.5961 23 17.25V9C23 8.45114 23.4511 8 24 8Z" fill="#05422C" stroke="#05422C"/>
<path d="M12 27.5C13.3807 27.5 14.5 28.6193 14.5 30C14.5 31.3807 13.3807 32.5 12 32.5C10.6193 32.5 9.5 31.3807 9.5 30C9.5 28.6193 10.6193 27.5 12 27.5Z" fill="#C3D2CC" stroke="#C3D2CC"/>
<path d="M24 27.5C25.3807 27.5 26.5 28.6193 26.5 30C26.5 31.3807 25.3807 32.5 24 32.5C22.6193 32.5 21.5 31.3807 21.5 30C21.5 28.6193 22.6193 27.5 24 27.5Z" fill="#C3D2CC" stroke="#C3D2CC"/>
<path d="M33 18.795V21H28.5C27.675 21 27 20.325 27 19.5V15C27 14.175 27.675 13.5 28.5 13.5H30.435L32.61 17.31C32.865 17.76 33 18.27 33 18.795Z" fill="#C3D2CC"/>
<path d="M19.62 3H8.535C5.85 3 3.6 4.92 3.105 7.47H9.66C10.23 7.47 10.68 7.935 10.68 8.505C10.68 9.075 10.23 9.525 9.66 9.525H3V11.595H6.9C7.47 11.595 7.935 12.06 7.935 12.63C7.935 13.2 7.47 13.65 6.9 13.65H3V15.72H4.155C4.725 15.72 5.19 16.185 5.19 16.755C5.19 17.325 4.725 17.775 4.155 17.775H3V18.12C3 18.945 3.675 19.62 4.5 19.62H18.225C19.755 19.62 21 18.375 21 16.845V4.38C21 3.615 20.385 3 19.62 3Z" fill="#05422C"/>
<path d="M3.105 7.46973H2.88H1.41C0.84 7.46973 0.375 7.93473 0.375 8.50473C0.375 9.07473 0.84 9.52473 1.41 9.52473H2.775H3V8.53473C3 8.17473 3.045 7.81473 3.105 7.46973Z" fill="#05422C"/>
<path d="M2.775 11.5947H1.41C0.84 11.5947 0.375 12.0597 0.375 12.6297C0.375 13.1997 0.84 13.6497 1.41 13.6497H2.775H3V11.5947H2.775Z" fill="#05422C"/>
<path d="M2.775 15.7197H1.41C0.84 15.7197 0.375 16.1847 0.375 16.7547C0.375 17.3247 0.84 17.7747 1.41 17.7747H2.775H3V15.7197H2.775Z" fill="#05422C"/>
</svg>
