<svg width="56" height="32" viewBox="0 0 56 32" fill="none" xmlns="http://www.w3.org/2000/svg">
<rect width="56" height="32" rx="6" fill="white"/>
<path d="M37.7009 18.4183C36.3647 23.7783 30.9343 27.0365 25.5819 25.7004C20.2217 24.3643 16.9634 18.934 18.2996 13.5817C19.6357 8.22169 25.0584 4.96347 30.4186 6.29958C35.7709 7.62787 39.037 13.0582 37.7009 18.4183Z" fill="url(#paint0_linear_1_15443)"/>
<path d="M32.7607 14.7539C32.9561 13.4258 31.9482 12.707 30.5576 12.2305L31.0107 10.4258L29.917 10.1523L29.4795 11.9102C29.1904 11.8398 28.8936 11.7695 28.5967 11.707L29.0342 9.94141L27.9404 9.66797L27.4951 11.4648C27.2529 11.4102 27.0186 11.3555 26.792 11.3008V11.293L25.2764 10.918L24.9873 12.0898C24.9873 12.0898 25.7998 12.2773 25.7842 12.2852C26.2295 12.3945 26.3076 12.6914 26.292 12.9258L25.7764 14.9805C25.8076 14.9883 25.8467 14.9961 25.8936 15.0195C25.8545 15.0117 25.8154 15.0039 25.7764 14.9883L25.0576 17.8633C25.0029 17.9961 24.8623 18.1992 24.5576 18.1211C24.5654 18.1367 23.7607 17.9258 23.7607 17.9258L23.2139 19.1836L24.6436 19.543C24.9092 19.6133 25.167 19.6758 25.4248 19.7461L24.9717 21.5664L26.0654 21.8398L26.5186 20.0352C26.8154 20.1133 27.1123 20.1914 27.3936 20.2617L26.9482 22.0586L28.042 22.332L28.4951 20.5117C30.3701 20.8633 31.7764 20.7227 32.3623 19.0273C32.8389 17.668 32.3389 16.8789 31.3545 16.3633C32.0811 16.1992 32.6201 15.7227 32.7607 14.7539ZM30.2529 18.2695C29.917 19.6289 27.6201 18.8945 26.8779 18.707L27.4795 16.293C28.2217 16.4805 30.6123 16.8477 30.2529 18.2695ZM30.5967 14.7305C30.2842 15.9727 28.3779 15.3398 27.7607 15.1836L28.3076 12.9961C28.9248 13.1523 30.917 13.4414 30.5967 14.7305Z" fill="white"/>
<defs>
<linearGradient id="paint0_linear_1_15443" x1="27.9947" y1="5.99529" x2="27.9947" y2="25.998" gradientUnits="userSpaceOnUse">
<stop stop-color="#F9AA4B"/>
<stop offset="1" stop-color="#F7931A"/>
</linearGradient>
</defs>
</svg>
