<svg width="56" height="32" viewBox="0 0 56 32" fill="none" xmlns="http://www.w3.org/2000/svg">
<rect width="56" height="32" rx="6" fill="white"/>
<mask id="mask0_1_15447" style="mask-type:luminance" maskUnits="userSpaceOnUse" x="18" y="6" width="20" height="20">
<path d="M18 6H37.9997V26H18V6Z" fill="white"/>
</mask>
<g mask="url(#mask0_1_15447)">
<path d="M19.9507 6.34082H36.0491C36.2606 6.34081 36.4699 6.38243 36.6653 6.46333C36.8606 6.54423 37.0381 6.6628 37.1876 6.8123C37.3371 6.96179 37.4557 7.13926 37.5367 7.33459C37.6176 7.52992 37.6592 7.73927 37.6592 7.9507V24.0495C37.6592 24.2609 37.6176 24.4702 37.5367 24.6656C37.4557 24.8609 37.3371 25.0383 37.1876 25.1878C37.0381 25.3373 36.8607 25.4559 36.6653 25.5367C36.47 25.6176 36.2607 25.6593 36.0493 25.6592H19.9505C19.5236 25.6592 19.1142 25.4897 18.8123 25.1878C18.5105 24.886 18.3409 24.4766 18.3408 24.0497V7.95058C18.3409 7.52364 18.5105 7.11419 18.8124 6.8123C19.1143 6.51042 19.5238 6.34082 19.9507 6.34082Z" fill="#FDB913"/>
<path d="M36.0493 6.34073C36.4762 6.34085 36.8856 6.51052 37.1875 6.81244C37.4893 7.11436 37.6589 7.52379 37.6589 7.95072V24.0494C37.6589 24.4763 37.4893 24.8857 37.1875 25.1876C36.8856 25.4895 36.4762 25.6592 36.0493 25.6593H19.9506C19.7392 25.6593 19.5298 25.6177 19.3345 25.5368C19.1391 25.4559 18.9616 25.3373 18.8121 25.1878C18.6626 25.0383 18.5441 24.8609 18.4632 24.6655C18.3823 24.4702 18.3407 24.2608 18.3407 24.0494V7.95072C18.3407 7.73929 18.3823 7.52992 18.4632 7.33458C18.5441 7.13923 18.6626 6.96173 18.8121 6.81222C18.9616 6.66271 19.1391 6.54412 19.3345 6.46322C19.5298 6.38232 19.7392 6.3407 19.9506 6.34073H36.0493ZM36.0493 6H19.9506C19.4334 6.00055 18.9376 6.20625 18.5719 6.57196C18.2062 6.93768 18.0005 7.43354 18 7.95072V24.0494C18.0006 24.5665 18.2063 25.0624 18.572 25.428C18.9376 25.7937 19.4335 25.9994 19.9506 26H36.0493C36.5664 25.9994 37.0622 25.7937 37.4278 25.428C37.7935 25.0623 37.9991 24.5665 37.9997 24.0494V7.95072C37.9992 7.43357 37.7935 6.93773 37.4279 6.57201C37.0622 6.2063 36.5664 6.00058 36.0493 6Z" fill="white"/>
<path d="M29.1271 16.2084L29.1255 12.7496L30.0283 12.5354V12.9889C30.0283 12.9889 30.2622 12.3926 30.8049 12.2542C30.886 12.2281 30.9722 12.2223 31.056 12.2373V13.1198C30.8935 13.122 30.7329 13.1554 30.583 13.2183C30.2494 13.35 30.0815 13.6375 30.0815 14.0764L30.082 15.9862L29.1271 16.2084ZM24.3678 17.3332C24.3678 17.3332 24.2209 17.1131 24.2209 16.3348V14.6128L23.7565 14.7233V14.0137L24.2221 13.9038V13.1303L25.1821 12.9036V13.677L25.8603 13.5159V14.2245L25.1821 14.3855C25.1821 14.3855 25.1809 15.7965 25.1821 16.1391C25.1821 16.9366 25.3937 17.0897 25.3937 17.0897L24.3678 17.3332ZM25.9607 15.2755C25.9607 14.6606 26.0483 14.212 26.2363 13.8677C26.46 13.4592 26.8267 13.1929 27.361 13.0713C28.4142 12.8318 28.7944 13.4552 28.7796 14.2911C28.774 14.59 28.7754 14.7357 28.7754 14.7357L26.9199 15.1718V15.2016C26.9199 15.7858 27.0424 16.0629 27.4125 15.9843C27.7322 15.9169 27.8211 15.7167 27.8464 15.469C27.8505 15.4291 27.8525 15.3275 27.8525 15.3275L28.7217 15.1192C28.7217 15.1192 28.7237 15.1904 28.7225 15.2702C28.7149 15.6021 28.6184 16.4254 27.4103 16.7111C26.2659 16.9827 25.9608 16.2838 25.9608 15.2754M27.3996 13.7156C27.0922 13.7853 26.9309 14.0869 26.9239 14.5866L27.8573 14.3643C27.8589 14.3417 27.8591 14.2919 27.8589 14.2139C27.8573 13.8366 27.7407 13.6375 27.3996 13.7156ZM34.3054 13.2528C34.2694 12.1994 34.5426 11.3634 35.7179 11.0972C36.4669 10.927 36.7514 11.1218 36.8955 11.3102C37.034 11.4899 37.0875 11.7322 37.0875 12.0717L37.0883 12.134L36.1688 12.3525L36.1681 12.2246C36.1688 11.822 36.0569 11.6689 35.7645 11.7421C35.4167 11.8295 35.2763 12.1595 35.2763 12.8157C35.2763 13.0487 35.2774 13.0905 35.2774 13.1219C35.2774 13.7888 35.3684 14.094 35.7692 14.0102C36.1169 13.9383 36.1644 13.633 36.17 13.3654C36.1707 13.3234 36.1725 13.1889 36.1725 13.1889L37.0906 12.972C37.0906 12.972 37.0915 13.0398 37.0915 13.1152C37.0892 13.9897 36.6283 14.5408 35.7648 14.7418C34.5752 15.0206 34.3422 14.3332 34.3053 13.2528M31.1268 14.7276C31.1268 13.9264 31.5962 13.673 32.3027 13.3807C32.938 13.1179 32.9518 12.9874 32.9544 12.759C32.9579 12.5668 32.8688 12.4023 32.5525 12.483C32.4471 12.5043 32.3519 12.5605 32.2824 12.6427C32.2129 12.7248 32.1732 12.828 32.1697 12.9355C32.1645 12.9946 32.1625 13.0538 32.1637 13.1131L31.2729 13.3234C31.2669 13.1459 31.2877 12.9685 31.3344 12.7971C31.4767 12.318 31.8994 11.9956 32.6288 11.8268C33.5765 11.6084 33.8924 12.0243 33.8935 12.6712V14.2032C33.8935 14.9441 34.0311 15.0527 34.0311 15.0527L33.1566 15.2596C33.1084 15.1585 33.0692 15.0534 33.0395 14.9455C33.0395 14.9455 32.8478 15.4279 32.1876 15.5831C31.4941 15.7466 31.1268 15.3168 31.1268 14.7276ZM32.9483 13.6335C32.8009 13.7369 32.6453 13.828 32.4831 13.906C32.1916 14.0484 32.0599 14.2241 32.0599 14.4947C32.0599 14.729 32.205 14.8829 32.4689 14.8177C32.7519 14.7464 32.9483 14.4823 32.9483 14.1154V13.6335ZM19.3484 19.7578C19.2486 19.7577 19.1506 19.7306 19.0649 19.6795C18.9792 19.6284 18.9088 19.5552 18.8612 19.4675C18.8136 19.3797 18.7905 19.2808 18.7944 19.1811C18.7983 19.0813 18.829 18.9845 18.8832 18.9007L18.8894 18.8927L18.8998 18.8899L20.2056 18.5817V19.5734L20.1853 19.5781C19.9448 19.636 19.7037 19.692 19.4622 19.746C19.4248 19.7539 19.3866 19.7578 19.3484 19.7578ZM19.3484 21.0264C19.2014 21.0264 19.0605 20.9681 18.9566 20.8642C18.8526 20.7604 18.7941 20.6196 18.794 20.4726C18.7937 20.3656 18.8247 20.2608 18.8832 20.1711L18.8894 20.162L18.8998 20.1592L20.2056 19.8511V20.8427L20.1853 20.848C19.8891 20.9192 19.5351 21.0011 19.4622 21.0157C19.4247 21.0229 19.3866 21.0265 19.3484 21.0264ZM19.3484 22.2975C19.2014 22.2974 19.0604 22.2389 18.9565 22.135C18.8525 22.0311 18.7941 21.8901 18.794 21.7432C18.7936 21.6361 18.8246 21.5313 18.8832 21.4418L18.8894 21.4318L20.2056 21.1216V22.1131L20.1853 22.1185C19.8725 22.1938 19.5251 22.2723 19.4622 22.2861C19.4247 22.2936 19.3866 22.2974 19.3484 22.2975ZM20.2055 12.755V18.3035L19.1943 18.5427L19.1939 12.9941L20.2055 12.755ZM21.714 18.0705C21.7151 17.9879 21.6998 17.9058 21.6689 17.8291C21.638 17.7524 21.5922 17.6826 21.5342 17.6237C21.4761 17.5649 21.4069 17.5181 21.3306 17.4862C21.2544 17.4543 21.1725 17.4379 21.0898 17.4379C21.0071 17.4379 20.9253 17.4543 20.849 17.4862C20.7727 17.5181 20.7035 17.5649 20.6455 17.6237C20.5874 17.6826 20.5416 17.7524 20.5108 17.8291C20.4799 17.9058 20.4646 17.9879 20.4657 18.0705L20.4668 23.2566C20.4674 23.7045 20.6454 24.1338 20.962 24.4506C21.2785 24.7674 21.7077 24.9457 22.1556 24.9466C22.628 24.9466 23.9223 24.9443 23.9223 24.9443L23.9229 22.7808L23.9235 20.3682C23.9236 20.2337 23.8906 20.1012 23.8272 19.9826C23.7639 19.8639 23.6723 19.7627 23.5605 19.688L21.9859 18.6184L21.9855 21.0471C21.9855 21.0648 21.982 21.0822 21.9753 21.0985C21.9685 21.1148 21.9586 21.1296 21.9462 21.1421C21.9337 21.1545 21.9189 21.1644 21.9026 21.1712C21.8863 21.1779 21.8688 21.1814 21.8512 21.1814C21.8336 21.1814 21.8161 21.1779 21.7998 21.1712C21.7835 21.1644 21.7687 21.1545 21.7563 21.1421C21.7438 21.1296 21.7339 21.1148 21.7272 21.0985C21.7204 21.0822 21.7169 21.0648 21.7169 21.0471C21.7169 21.0211 21.714 18.3913 21.714 18.0705ZM22.5569 14.2013C22.3655 14.2458 22.186 14.3309 22.0306 14.4511C21.8752 14.5712 21.7476 14.7235 21.6565 14.8975V14.5075L20.7456 14.7231L20.7467 17.2134C20.9065 17.1502 21.0806 17.1325 21.2499 17.162C21.4191 17.1916 21.5768 17.2674 21.7057 17.3811V15.7732C21.7057 15.388 21.8973 15.0803 22.1712 15.0199C22.3772 14.9747 22.5492 15.0484 22.5492 15.4153L22.5499 17.7613L23.5093 17.5363V15.0546C23.5093 14.4529 23.2776 14.0323 22.5569 14.2013ZM36.4965 10.65C36.3792 10.6502 36.2645 10.6155 36.1668 10.5503C36.0692 10.4852 35.9931 10.3926 35.9481 10.2842C35.9032 10.1758 35.8914 10.0565 35.9142 9.94143C35.9371 9.82634 35.9936 9.7206 36.0766 9.63762C36.1595 9.55464 36.2652 9.49813 36.3803 9.47525C36.4954 9.45237 36.6147 9.46415 36.7231 9.50909C36.8315 9.55403 36.9241 9.63012 36.9893 9.72773C37.0544 9.82533 37.0891 9.94007 37.0891 10.0574C37.0889 10.2145 37.0264 10.3652 36.9154 10.4763C36.8043 10.5874 36.6537 10.6498 36.4965 10.65ZM36.4965 9.53869C36.394 9.53867 36.2937 9.56906 36.2084 9.62603C36.1231 9.683 36.0566 9.76398 36.0173 9.85873C35.9781 9.95349 35.9678 10.0578 35.9878 10.1584C36.0078 10.259 36.0571 10.3514 36.1296 10.4239C36.2021 10.4965 36.2945 10.5459 36.3951 10.5659C36.4957 10.586 36.6 10.5757 36.6948 10.5365C36.7896 10.4972 36.8706 10.4308 36.9276 10.3455C36.9846 10.2602 37.015 10.16 37.015 10.0574C37.0149 9.91992 36.9603 9.78808 36.8631 9.69084C36.7659 9.59359 36.634 9.53887 36.4965 9.53869Z" fill="#231F20"/>
<path d="M36.2803 9.70408H36.5358C36.5608 9.7014 36.5861 9.70439 36.6097 9.71282C36.6334 9.72124 36.6549 9.7349 36.6725 9.75276C36.6902 9.77063 36.7036 9.79224 36.7117 9.816C36.7199 9.83976 36.7226 9.86505 36.7196 9.88999C36.7196 9.98398 36.6779 10.0562 36.5991 10.0684V10.0698C36.6708 10.0772 36.7086 10.1168 36.7122 10.2186C36.7136 10.2645 36.7143 10.3214 36.7165 10.3657C36.7165 10.3782 36.7197 10.3904 36.7257 10.4013C36.7317 10.4123 36.7404 10.4215 36.7509 10.4282H36.6202C36.6077 10.4091 36.601 10.3868 36.6007 10.364C36.5967 10.3207 36.5977 10.2798 36.5958 10.2273C36.5938 10.1483 36.5696 10.1137 36.4903 10.1137H36.3957V10.4281H36.2803V9.70408ZM36.4882 10.0266C36.5039 10.028 36.5197 10.0259 36.5345 10.0205C36.5493 10.0151 36.5627 10.0064 36.5738 9.99521C36.5848 9.98398 36.5933 9.97043 36.5985 9.95555C36.6036 9.94067 36.6055 9.92483 36.6038 9.90916C36.6038 9.83192 36.5705 9.7913 36.4943 9.7913H36.3957V10.0266H36.4882Z" fill="#231F20"/>
</g>
</svg>
