<svg width="64" height="64" viewBox="0 0 64 64" fill="none" xmlns="http://www.w3.org/2000/svg">
<rect x="23.5557" y="19.5557" width="37.3333" height="37.3333" rx="18.6667" fill="#9BDDA2"/>
<path d="M56.1 26.05C55.125 25.025 54.125 23.975 53.725 23C53.325 22.025 53.325 20.75 53.3 19.325C53.275 17 53.225 14.325 51.45 12.55C49.675 10.775 47 10.725 44.675 10.7C43.25 10.675 41.9 10.65 41 10.275C40.1 9.9 38.975 8.875 37.95 7.9C36.3 6.3 34.4 4.5 32 4.5C29.6 4.5 27.7 6.3 26.05 7.9C25.025 8.875 23.975 9.875 23 10.275C22.025 10.675 20.75 10.675 19.325 10.7C17 10.725 14.325 10.775 12.55 12.55C10.775 14.325 10.725 17 10.7 19.325C10.675 20.75 10.65 22.1 10.275 23C9.9 23.9 8.875 25.025 7.9 26.05C6.3 27.7 4.5 29.6 4.5 32C4.5 34.4 6.3 36.3 7.9 37.95C8.875 38.975 9.875 40.025 10.275 41C10.675 41.975 10.675 43.25 10.7 44.675C10.725 47 10.775 49.675 12.55 51.45C14.325 53.225 17 53.275 19.325 53.3C20.75 53.325 22.1 53.35 23 53.725C23.9 54.1 25.025 55.125 26.05 56.1C27.7 57.7 29.6 59.5 32 59.5C34.4 59.5 36.3 57.7 37.95 56.1C38.975 55.125 40.025 54.125 41 53.725C41.975 53.325 43.25 53.325 44.675 53.3C47 53.275 49.675 53.225 51.45 51.45C53.225 49.675 53.275 47 53.3 44.675C53.325 43.25 53.35 41.9 53.725 41C54.1 40.1 55.125 38.975 56.1 37.95C57.7 36.3 59.5 34.4 59.5 32C59.5 29.6 57.7 27.7 56.1 26.05ZM53.95 35.875C52.775 37.1 51.575 38.35 50.95 39.85C50.325 41.35 50.325 42.975 50.3 44.625C50.275 46.275 50.25 48.4 49.325 49.325C48.4 50.25 46.475 50.275 44.625 50.3C42.775 50.325 41.275 50.35 39.85 50.95C38.425 51.55 37.1 52.775 35.875 53.95C34.65 55.125 33.2 56.5 32 56.5C30.8 56.5 29.45 55.2 28.125 53.95C26.8 52.7 25.65 51.575 24.15 50.95C22.65 50.325 21.025 50.325 19.375 50.3C17.725 50.275 15.6 50.25 14.675 49.325C13.75 48.4 13.725 46.475 13.7 44.625C13.675 42.775 13.65 41.275 13.05 39.85C12.45 38.425 11.225 37.1 10.05 35.875C8.875 34.65 7.5 33.2 7.5 32C7.5 30.8 8.8 29.45 10.05 28.125C11.3 26.8 12.425 25.65 13.05 24.15C13.675 22.65 13.675 21.025 13.7 19.375C13.725 17.725 13.75 15.6 14.675 14.675C15.6 13.75 17.525 13.725 19.375 13.7C21.225 13.675 22.725 13.65 24.15 13.05C25.575 12.45 26.9 11.225 28.125 10.05C29.35 8.875 30.8 7.5 32 7.5C33.2 7.5 34.55 8.8 35.875 10.05C37.2 11.3 38.35 12.425 39.85 13.05C41.35 13.675 42.975 13.675 44.625 13.7C46.275 13.725 48.4 13.75 49.325 14.675C50.25 15.6 50.275 17.525 50.3 19.375C50.325 21.225 50.35 22.725 50.95 24.15C51.55 25.575 52.775 26.9 53.95 28.125C55.125 29.35 56.5 30.8 56.5 32C56.5 33.2 55.2 34.55 53.95 35.875ZM44.075 24.975C44.2109 25.1155 44.3175 25.2816 44.3886 25.4636C44.4597 25.6457 44.4939 25.8401 44.4893 26.0355C44.4846 26.2309 44.4412 26.4234 44.3615 26.6018C44.2818 26.7803 44.1674 26.9411 44.025 27.075L29.375 41.075C29.0898 41.342 28.7156 41.4935 28.325 41.5C27.9405 41.4998 27.5718 41.347 27.3 41.075L19.975 34.075C19.6899 33.8032 19.5245 33.4292 19.5151 33.0354C19.5057 32.6415 19.6532 32.2601 19.925 31.975C20.1968 31.6899 20.5708 31.5245 20.9646 31.5151C21.3585 31.5057 21.7399 31.6532 22.025 31.925L28.325 37.925L41.975 24.925C42.1155 24.7891 42.2816 24.6825 42.4636 24.6114C42.6457 24.5403 42.8401 24.5061 43.0355 24.5107C43.2309 24.5154 43.4234 24.5588 43.6018 24.6385C43.7803 24.7182 43.9411 24.8326 44.075 24.975Z" fill="white"/>
</svg>
