<svg width="64" height="64" viewBox="0 0 64 64" fill="none" xmlns="http://www.w3.org/2000/svg">
<rect x="24" y="16.8887" width="25.3333" height="40.8889" rx="8" fill="#9BDDA2"/>
<path fill-rule="evenodd" clip-rule="evenodd" d="M17.333 12.0002C16.9794 12.0002 16.6402 12.1406 16.3902 12.3907C16.1402 12.6407 15.9997 12.9799 15.9997 13.3335V54.6668C15.9997 55.0205 16.1402 55.3596 16.3902 55.6096C16.6402 55.8597 16.9794 56.0002 17.333 56.0002H46.6663C47.02 56.0002 47.3591 55.8597 47.6091 55.6096C47.8592 55.3596 47.9997 55.0205 47.9997 54.6668V13.3335C47.9997 12.9799 47.8592 12.6407 47.6091 12.3907C47.3591 12.1406 47.02 12.0002 46.6663 12.0002H39.2223V9.3335H46.6663C47.7272 9.3335 48.7446 9.75492 49.4948 10.5051C50.2449 11.2552 50.6663 12.2726 50.6663 13.3335V54.6668C50.6663 55.7277 50.2449 56.7451 49.4948 57.4953C48.7446 58.2454 47.7272 58.6668 46.6663 58.6668H17.333C16.2721 58.6668 15.2547 58.2454 14.5046 57.4953C13.7544 56.7451 13.333 55.7277 13.333 54.6668V13.3335C13.333 12.2726 13.7544 11.2552 14.5046 10.5051C15.2547 9.75492 16.2721 9.3335 17.333 9.3335H24.777V12.0002H17.333Z" fill="white"/>
<path fill-rule="evenodd" clip-rule="evenodd" d="M22.6667 9.3335C22.6667 8.27263 23.0881 7.25521 23.8382 6.50507C24.5884 5.75492 25.6058 5.3335 26.6667 5.3335H37.3333C38.3942 5.3335 39.4116 5.75492 40.1618 6.50507C40.9119 7.25521 41.3333 8.27263 41.3333 9.3335V12.0002C41.3333 13.061 40.9119 14.0784 40.1618 14.8286C39.4116 15.5787 38.3942 16.0002 37.3333 16.0002H26.6667C25.6058 16.0002 24.5884 15.5787 23.8382 14.8286C23.0881 14.0784 22.6667 13.061 22.6667 12.0002V9.3335ZM26.6667 8.00016C26.313 8.00016 25.9739 8.14064 25.7239 8.39069C25.4738 8.64074 25.3333 8.97987 25.3333 9.3335V12.0002C25.3333 12.3538 25.4738 12.6929 25.7239 12.943C25.9739 13.193 26.313 13.3335 26.6667 13.3335H37.3333C37.687 13.3335 38.0261 13.193 38.2761 12.943C38.5262 12.6929 38.6667 12.3538 38.6667 12.0002V9.3335C38.6667 8.97987 38.5262 8.64074 38.2761 8.39069C38.0261 8.14064 37.687 8.00016 37.3333 8.00016H26.6667ZM20 28.0002C20 27.6465 20.1405 27.3074 20.3905 27.0574C20.6406 26.8073 20.9797 26.6668 21.3333 26.6668H30.6667C31.0203 26.6668 31.3594 26.8073 31.6095 27.0574C31.8595 27.3074 32 27.6465 32 28.0002C32 28.3538 31.8595 28.6929 31.6095 28.943C31.3594 29.193 31.0203 29.3335 30.6667 29.3335H21.3333C20.9797 29.3335 20.6406 29.193 20.3905 28.943C20.1405 28.6929 20 28.3538 20 28.0002ZM20 21.3335C20 20.9799 20.1405 20.6407 20.3905 20.3907C20.6406 20.1406 20.9797 20.0002 21.3333 20.0002H42C42.3536 20.0002 42.6928 20.1406 42.9428 20.3907C43.1929 20.6407 43.3333 20.9799 43.3333 21.3335C43.3333 21.6871 43.1929 22.0263 42.9428 22.2763C42.6928 22.5264 42.3536 22.6668 42 22.6668H21.3333C20.9797 22.6668 20.6406 22.5264 20.3905 22.2763C20.1405 22.0263 20 21.6871 20 21.3335ZM22.6667 38.6668V41.3335H25.3333V38.6668H22.6667ZM21.3333 36.0002C20.9797 36.0002 20.6406 36.1406 20.3905 36.3907C20.1405 36.6407 20 36.9799 20 37.3335V42.6668C20 43.0205 20.1405 43.3596 20.3905 43.6096C20.6406 43.8597 20.9797 44.0002 21.3333 44.0002H26.6667C27.0203 44.0002 27.3594 43.8597 27.6095 43.6096C27.8595 43.3596 28 43.0205 28 42.6668V37.3335C28 36.9799 27.8595 36.6407 27.6095 36.3907C27.3594 36.1406 27.0203 36.0002 26.6667 36.0002H21.3333ZM37.3333 38.6668C37.5133 38.6751 37.693 38.6468 37.8617 38.5836C38.0304 38.5205 38.1845 38.4238 38.3148 38.2995C38.4451 38.1751 38.5489 38.0257 38.6198 37.8601C38.6907 37.6945 38.7274 37.5163 38.7276 37.3362C38.7278 37.1561 38.6915 36.9778 38.6208 36.8121C38.5502 36.6464 38.4468 36.4968 38.3167 36.3722C38.1867 36.2476 38.0327 36.1506 37.8642 36.0871C37.6956 36.0236 37.5159 35.995 37.336 36.0028C36.993 36.0178 36.6691 36.1645 36.4315 36.4124C36.194 36.6603 36.0613 36.9903 36.0609 37.3336C36.0606 37.6769 36.1927 38.0071 36.4297 38.2554C36.6667 38.5038 36.9904 38.6511 37.3333 38.6668ZM37.3333 41.3335C38.3942 41.3335 39.4116 40.9121 40.1618 40.1619C40.9119 39.4118 41.3333 38.3944 41.3333 37.3335C41.3333 36.2726 40.9119 35.2552 40.1618 34.5051C39.4116 33.7549 38.3942 33.3335 37.3333 33.3335C36.2725 33.3335 35.2551 33.7549 34.5049 34.5051C33.7548 35.2552 33.3333 36.2726 33.3333 37.3335C33.3333 38.3944 33.7548 39.4118 34.5049 40.1619C35.2551 40.9121 36.2725 41.3335 37.3333 41.3335ZM32 47.0402C32.0233 47.0129 32.0478 46.9866 32.0733 46.9615C32.292 46.7482 32.7133 46.4655 33.3747 46.1842C34.708 45.6175 36.3533 45.3335 37.3333 45.3335C38.3133 45.3335 39.9587 45.6175 41.292 46.1842C41.9533 46.4642 42.3747 46.7482 42.5933 46.9615C42.6189 46.9862 42.6433 47.012 42.6667 47.0388V49.3335H32V47.0402ZM37.3333 42.6668C34.6627 42.6668 29.3333 44.0882 29.3333 46.9095V52.0002H45.3333V46.9095C45.3333 44.0882 40.004 42.6668 37.3333 42.6668Z" fill="white"/>
</svg>
