<svg width="64" height="64" viewBox="0 0 64 64" fill="none" xmlns="http://www.w3.org/2000/svg">
<rect x="13.7773" y="20.4443" width="31.1111" height="28.4444" rx="8" fill="#9BDDA2"/>
<path d="M31.9998 7.99991C30.8112 7.10849 29.3979 6.56566 27.9182 6.43223C26.4386 6.29881 24.9509 6.58006 23.6221 7.24449C22.2932 7.90891 21.1757 8.93025 20.3946 10.1941C19.6135 11.4579 19.1998 12.9142 19.1998 14.3999V19.1999H15.9998C15.1511 19.1999 14.3372 19.537 13.7371 20.1372C13.1369 20.7373 12.7998 21.5512 12.7998 22.3999V47.9999C12.7998 50.546 13.8112 52.9878 15.6116 54.7881C17.4119 56.5885 19.8537 57.5999 22.3998 57.5999H36.8958L33.763 54.3999H22.3998C20.7024 54.3999 19.0746 53.7256 17.8743 52.5254C16.6741 51.3252 15.9998 49.6973 15.9998 47.9999V22.3999H35.1998V28.9663C35.7367 28.8555 36.2836 28.7997 36.8318 28.7999H38.3998V22.3999H47.9998V29.0463C49.171 29.3439 50.2686 29.9039 51.1998 30.6911V22.3999C51.1998 21.5512 50.8627 20.7373 50.2625 20.1372C49.6624 19.537 48.8485 19.1999 47.9998 19.1999H44.7998V14.3999C44.7998 12.9142 44.3861 11.4579 43.605 10.1941C42.8239 8.93025 41.7064 7.90891 40.3775 7.24449C39.0487 6.58006 37.5611 6.29881 36.0814 6.43223C34.6017 6.56566 33.1884 7.10849 31.9998 7.99991ZM22.3998 14.3999C22.3998 13.1269 22.9055 11.906 23.8057 11.0058C24.7059 10.1056 25.9268 9.59991 27.1998 9.59991C28.4728 9.59991 29.6937 10.1056 30.5939 11.0058C31.4941 11.906 31.9998 13.1269 31.9998 14.3999V19.1999H22.3998V14.3999ZM34.1342 10.4063C34.8571 9.92358 35.6975 9.64621 36.5657 9.60383C37.434 9.56144 38.2974 9.75562 39.0639 10.1656C39.8304 10.5757 40.4711 11.1861 40.9178 11.9319C41.3644 12.6776 41.6001 13.5306 41.5998 14.3999V19.1999H35.1998V14.3999C35.1998 12.9471 34.8126 11.5839 34.1342 10.4063ZM33.3822 49.4367C32.4965 48.5323 32.0003 47.317 31.9998 46.0511V36.8351C31.9994 36.2003 32.1241 35.5716 32.3667 34.985C32.6093 34.3984 32.9652 33.8653 33.4139 33.4163C33.8627 32.9673 34.3955 32.6111 34.9819 32.368C35.5684 32.125 36.197 31.9999 36.8318 31.9999H46.0254C47.315 31.9999 48.5502 32.5151 49.4558 33.4303L59.3982 43.4783C59.8495 43.934 60.2058 44.4748 60.4463 45.0693C60.6868 45.6638 60.8069 46.3001 60.7994 46.9414C60.792 47.5827 60.6572 48.2161 60.4029 48.8049C60.1487 49.3937 59.7799 49.926 59.3182 50.3711L49.8878 59.4495C48.971 60.333 47.7421 60.8183 46.469 60.7997C45.1959 60.7812 43.9817 60.2602 43.091 59.3503L33.3822 49.4367ZM38.3998 40.7999C38.3998 41.4364 38.6527 42.0469 39.1027 42.497C39.5528 42.947 40.1633 43.1999 40.7998 43.1999C41.4363 43.1999 42.0468 42.947 42.4969 42.497C42.9469 42.0469 43.1998 41.4364 43.1998 40.7999C43.1998 40.1634 42.9469 39.5529 42.4969 39.1028C42.0468 38.6528 41.4363 38.3999 40.7998 38.3999C40.1633 38.3999 39.5528 38.6528 39.1027 39.1028C38.6527 39.5529 38.3998 40.1634 38.3998 40.7999Z" fill="white"/>
</svg>
