<svg width="26" height="26" viewBox="0 0 26 26" fill="none" xmlns="http://www.w3.org/2000/svg">
<g clip-path="url(#clip0_1_17505)">
<rect width="26" height="26" fill="#EEFBFF"/>
<path d="M19.4527 8.85424C19.0234 9.03899 18.5721 9.16764 18.1099 9.23702C18.326 9.19997 18.6439 8.81102 18.7705 8.65359C18.9628 8.41611 19.1093 8.14502 19.2026 7.85407C19.2026 7.83246 19.2243 7.8016 19.2026 7.78616C19.1918 7.78022 19.1795 7.7771 19.1671 7.7771C19.1547 7.7771 19.1425 7.78022 19.1316 7.78616C18.6298 8.05794 18.0956 8.26537 17.5419 8.40355C17.5226 8.40944 17.502 8.40997 17.4825 8.40508C17.4629 8.40018 17.445 8.39005 17.4307 8.37576C17.3876 8.32444 17.3412 8.27597 17.2918 8.23068C17.066 8.02831 16.8097 7.86269 16.5325 7.73986C16.1582 7.58631 15.7539 7.51981 15.3502 7.54538C14.9584 7.57012 14.5759 7.6752 14.2265 7.85407C13.8824 8.04266 13.58 8.29886 13.3375 8.60728C13.0823 8.92473 12.8981 9.29313 12.7973 9.68771C12.7141 10.063 12.7047 10.4509 12.7695 10.8299C12.7695 10.8947 12.7695 10.904 12.7139 10.8947C10.5129 10.5706 8.70709 9.78958 7.23154 8.11337C7.16672 8.03929 7.13276 8.03929 7.08028 8.11337C6.4382 9.08884 6.74998 10.6323 7.55258 11.3948C7.66062 11.4966 7.77175 11.5954 7.88906 11.688C7.52107 11.6619 7.16207 11.5622 6.83333 11.3948C6.77159 11.3546 6.73763 11.3763 6.73455 11.4503C6.72579 11.5531 6.72579 11.6563 6.73455 11.759C6.79896 12.2513 6.99294 12.7176 7.29667 13.1103C7.6004 13.5029 8.00298 13.8079 8.46322 13.994C8.57542 14.042 8.69233 14.0782 8.81205 14.102C8.47138 14.1691 8.12199 14.1795 7.77793 14.1329C7.70384 14.1174 7.67606 14.1576 7.70384 14.2286C8.15762 15.4633 9.14235 15.84 9.86469 16.0499C9.96347 16.0653 10.0623 16.0653 10.1734 16.09C10.1734 16.09 10.1734 16.09 10.1549 16.1085C9.94186 16.4975 9.08061 16.7599 8.68548 16.8957C7.96428 17.1547 7.19533 17.2538 6.43203 17.1859C6.31164 17.1673 6.28385 17.1704 6.25298 17.1859C6.22212 17.2013 6.25298 17.2352 6.28694 17.2661C6.44129 17.368 6.59563 17.4575 6.75615 17.5439C7.23402 17.8046 7.73923 18.0116 8.26257 18.1613C10.9729 18.9084 14.0228 18.3589 16.0571 16.337C17.6561 14.7503 18.2179 12.5616 18.2179 10.3699C18.2179 10.2866 18.3198 10.2372 18.3784 10.194C18.783 9.87876 19.1396 9.5065 19.4373 9.08884C19.4888 9.02659 19.5152 8.94732 19.5113 8.86659C19.5113 8.82028 19.5113 8.82954 19.4527 8.85424Z" fill="#33CCFF"/>
</g>
<defs>
<clipPath id="clip0_1_17505">
<rect width="26" height="26" rx="13" fill="white"/>
</clipPath>
</defs>
</svg>
