<svg width="64" height="64" viewBox="0 0 64 64" fill="none" xmlns="http://www.w3.org/2000/svg">
<rect x="21.333" y="31.1113" width="31.1111" height="21.7778" rx="8" fill="#9BDDA2"/>
<path d="M32.006 5.25418C32.3833 4.71323 32.8681 4.25584 33.43 3.91055C33.9919 3.56527 34.619 3.33949 35.2721 3.24731C35.9251 3.15513 36.5902 3.19852 37.2258 3.37479C37.8613 3.55105 38.4537 3.8564 38.966 4.27178L49.43 12.7678C50.365 13.5265 50.9807 14.6089 51.1549 15.8003C51.3292 16.9917 51.0493 18.2051 50.3708 19.1998H46.4668L47.7148 17.411C47.9471 17.0796 48.0452 16.6726 47.9894 16.2718C47.9336 15.871 47.728 15.5062 47.414 15.251L42.0252 10.8798L36.278 19.1998H32.3836L39.5324 8.85738L36.9468 6.75818C36.7761 6.61967 36.5787 6.51782 36.3669 6.45898C36.1551 6.40014 35.9334 6.38558 35.7157 6.41621C35.4981 6.44683 35.289 6.52199 35.1017 6.63698C34.9143 6.75198 34.7527 6.90435 34.6268 7.08458L26.1756 19.1966H22.2716L32.006 5.25418ZM43.1996 38.3998C42.7753 38.3998 42.3683 38.5684 42.0682 38.8684C41.7682 39.1685 41.5996 39.5754 41.5996 39.9998C41.5996 40.4241 41.7682 40.8311 42.0682 41.1312C42.3683 41.4312 42.7753 41.5998 43.1996 41.5998H46.3996C46.824 41.5998 47.2309 41.4312 47.531 41.1312C47.831 40.8311 47.9996 40.4241 47.9996 39.9998C47.9996 39.5754 47.831 39.1685 47.531 38.8684C47.2309 38.5684 46.824 38.3998 46.3996 38.3998H43.1996ZM14.3996 15.9998H21.3404L19.1004 19.1998H14.3996C13.9753 19.1998 13.5683 19.3684 13.2682 19.6684C12.9682 19.9685 12.7996 20.3754 12.7996 20.7998C12.7996 21.2241 12.9682 21.6311 13.2682 21.9312C13.5683 22.2312 13.9753 22.3998 14.3996 22.3998H47.9996C49.697 22.3998 51.3249 23.0741 52.5251 24.2743C53.7253 25.4745 54.3996 27.1024 54.3996 28.7998V47.9998C54.3996 49.6972 53.7253 51.325 52.5251 52.5253C51.3249 53.7255 49.697 54.3998 47.9996 54.3998H17.5996C15.4779 54.3998 13.443 53.5569 11.9428 52.0566C10.4425 50.5563 9.59961 48.5215 9.59961 46.3998V20.7998C9.59961 19.5267 10.1053 18.3058 11.0055 17.4057C11.9057 16.5055 13.1266 15.9998 14.3996 15.9998ZM12.7996 46.3998C12.7996 47.6728 13.3053 48.8937 14.2055 49.7939C15.1057 50.6941 16.3266 51.1998 17.5996 51.1998H47.9996C48.8483 51.1998 49.6622 50.8626 50.2624 50.2625C50.8625 49.6624 51.1996 48.8485 51.1996 47.9998V28.7998C51.1996 27.9511 50.8625 27.1372 50.2624 26.537C49.6622 25.9369 48.8483 25.5998 47.9996 25.5998H14.3996C13.8396 25.5998 13.2988 25.5038 12.7996 25.3278V46.3998Z" fill="white"/>
</svg>
